<?xml version="1.0" encoding="UTF-8"?>
<svg xmlns="http://www.w3.org/2000/svg" xmlns:xlink="http://www.w3.org/1999/xlink" width="13px" height="13px" viewBox="0 0 13 13" version="1.1">
<g id="gpsi">
<path style=" stroke:none;fill-rule:nonzero;fill:#9fa4a8;fill-opacity:1;" d="M 8.214844 2.28125 C 8.160156 2.34375 4.859375 9.085938 4.785156 9.292969 C 4.597656 9.804688 4.828125 10.363281 5.332031 10.609375 C 5.460938 10.667969 5.496094 10.675781 5.753906 10.675781 C 6.023438 10.675781 6.039062 10.675781 6.226562 10.582031 C 6.441406 10.476562 6.589844 10.328125 6.695312 10.121094 C 6.738281 10.035156 7.015625 8.878906 7.632812 6.207031 C 8.113281 4.121094 8.507812 2.398438 8.507812 2.375 C 8.507812 2.257812 8.300781 2.191406 8.214844 2.28125 Z M 6.003906 9.164062 C 6.375 9.332031 6.410156 9.828125 6.074219 10.058594 C 6 10.109375 5.953125 10.117188 5.800781 10.117188 C 5.644531 10.117188 5.605469 10.109375 5.511719 10.046875 C 5.363281 9.949219 5.269531 9.746094 5.292969 9.578125 C 5.320312 9.375 5.476562 9.179688 5.652344 9.132812 C 5.757812 9.109375 5.910156 9.117188 6.003906 9.164062 Z M 6.003906 9.164062 "/>
<path style=" stroke:none;fill-rule:nonzero;fill:#9fa4a8;fill-opacity:1;" d="M 6.261719 3.246094 C 6.242188 3.277344 6.183594 4.683594 6.199219 4.726562 C 6.214844 4.761719 6.394531 4.804688 6.558594 4.8125 C 6.570312 4.8125 6.742188 4.472656 6.945312 4.0625 C 7.207031 3.53125 7.300781 3.3125 7.28125 3.296875 C 7.1875 3.246094 6.289062 3.199219 6.261719 3.246094 Z M 6.261719 3.246094 "/>
<path style=" stroke:none;fill-rule:nonzero;fill:#9fa4a8;fill-opacity:1;" d="M 5.226562 3.300781 C 4.335938 3.457031 3.558594 3.769531 2.789062 4.285156 C 2.617188 4.398438 2.539062 4.464844 2.539062 4.5 C 2.539062 4.546875 3.078125 5.363281 3.125 5.378906 C 3.136719 5.382812 3.289062 5.316406 3.457031 5.234375 C 4.09375 4.921875 4.898438 4.722656 5.535156 4.722656 C 5.65625 4.722656 5.691406 4.710938 5.707031 4.679688 C 5.730469 4.613281 5.640625 3.324219 5.609375 3.285156 C 5.574219 3.242188 5.5625 3.242188 5.226562 3.300781 Z M 5.226562 3.300781 "/>
<path style=" stroke:none;fill-rule:nonzero;fill:#9fa4a8;fill-opacity:1;" d="M 8.367188 4.539062 C 8.257812 5.023438 8.164062 5.429688 8.164062 5.441406 C 8.160156 5.476562 8.527344 5.71875 8.5625 5.707031 C 8.601562 5.691406 9.546875 4.253906 9.566406 4.1875 C 9.570312 4.160156 9.546875 4.125 9.5 4.089844 C 9.40625 4.023438 8.71875 3.6875 8.632812 3.667969 L 8.570312 3.652344 Z M 8.367188 4.539062 "/>
<path style=" stroke:none;fill-rule:nonzero;fill:#9fa4a8;fill-opacity:1;" d="M 9.523438 5.257812 C 9.199219 5.648438 8.929688 5.984375 8.921875 6.003906 C 8.914062 6.023438 8.980469 6.125 9.09375 6.25 C 9.339844 6.527344 9.492188 6.730469 9.652344 6.988281 C 9.8125 7.238281 10.027344 7.691406 10.101562 7.925781 C 10.132812 8.019531 10.175781 8.109375 10.195312 8.125 C 10.222656 8.148438 10.453125 8.0625 11.253906 7.742188 C 11.816406 7.519531 12.292969 7.316406 12.3125 7.296875 C 12.347656 7.265625 12.335938 7.230469 12.226562 7.011719 C 11.988281 6.53125 11.660156 6.03125 11.3125 5.613281 C 10.960938 5.199219 10.253906 4.546875 10.152344 4.546875 C 10.132812 4.546875 9.867188 4.84375 9.523438 5.257812 Z M 9.523438 5.257812 "/>
<path style=" stroke:none;fill-rule:nonzero;fill:#9fa4a8;fill-opacity:1;" d="M 1.773438 5.148438 C 1.34375 5.589844 1.023438 6.039062 0.730469 6.601562 C 0.535156 6.976562 0.324219 7.492188 0.335938 7.570312 C 0.339844 7.613281 0.394531 7.644531 0.59375 7.722656 C 0.734375 7.777344 0.871094 7.820312 0.898438 7.820312 C 0.9375 7.820312 0.980469 7.765625 1.078125 7.578125 C 1.414062 6.925781 1.886719 6.351562 2.492188 5.851562 C 2.601562 5.757812 2.691406 5.667969 2.6875 5.648438 C 2.679688 5.628906 2.5625 5.480469 2.425781 5.3125 C 2.128906 4.96875 2.066406 4.898438 2.035156 4.898438 C 2.023438 4.898438 1.90625 5.011719 1.773438 5.148438 Z M 1.773438 5.148438 "/>
<path style=" stroke:none;fill-rule:nonzero;fill:#9fa4a8;fill-opacity:1;" d="M 11.441406 8.242188 C 10.84375 8.414062 10.339844 8.566406 10.328125 8.578125 C 10.308594 8.597656 10.3125 8.679688 10.332031 8.816406 C 10.414062 9.355469 10.394531 10.007812 10.28125 10.542969 L 10.238281 10.765625 L 11.601562 10.765625 C 12.824219 10.765625 12.96875 10.761719 12.984375 10.726562 C 13.011719 10.660156 13.003906 10.015625 12.976562 9.699219 C 12.933594 9.273438 12.859375 8.816406 12.761719 8.441406 C 12.664062 8.054688 12.609375 7.921875 12.5625 7.925781 C 12.546875 7.925781 12.039062 8.070312 11.441406 8.242188 Z M 11.441406 8.242188 "/>
<path style=" stroke:none;fill-rule:nonzero;fill:#9fa4a8;fill-opacity:1;" d="M 0.15625 8.207031 C 0.125 8.25 0.0585938 8.652344 0.0234375 9.039062 C -0.0117188 9.414062 0.0078125 10.078125 0.0625 10.457031 C 0.0820312 10.601562 0.105469 10.730469 0.113281 10.742188 C 0.136719 10.777344 0.40625 10.769531 0.410156 10.734375 C 0.410156 10.71875 0.410156 10.558594 0.40625 10.382812 C 0.40625 10.207031 0.417969 9.933594 0.429688 9.773438 C 0.464844 9.433594 0.585938 8.8125 0.660156 8.597656 C 0.714844 8.433594 0.722656 8.339844 0.6875 8.316406 C 0.660156 8.300781 0.230469 8.175781 0.199219 8.175781 C 0.191406 8.175781 0.171875 8.191406 0.15625 8.207031 Z M 0.15625 8.207031 "/>
</g>
</svg>
